<?xml version="1.0" encoding="iso-8859-1"?>
<!-- Generator: Adobe Illustrator 19.0.0, SVG Export Plug-In . SVG Version: 6.00 Build 0)  -->
<svg version="1.1" id="Capa_1" xmlns="http://www.w3.org/2000/svg" xmlns:xlink="http://www.w3.org/1999/xlink" x="0px" y="0px"
	 viewBox="0 0 512 512" style="enable-background:new 0 0 512 512;" xml:space="preserve">
<g>
	<g>
		<g stroke="#152334" fill="#152334">
			<path d="M321.6,0l27.312,27.312c6.246,6.248,6.246,16.376,0,22.624l-161.92,161.952l22.608,22.624L371.552,72.576
				c10.645-10.644,15.68-25.666,13.6-40.576H480v94.848c-14.898-2.007-29.883,3.018-40.56,13.6L277.488,302.4l22.624,22.624
				L462.08,163.072c6.322-6.049,16.286-6.049,22.608,0L512,190.4V0H321.6z"/>
			<rect x="238.874" y="331.64" transform="matrix(-0.7071 -0.7071 0.7071 -0.7071 189.2786 773.6828)" width="32" height="32"/>
			<rect x="193.61" y="376.918" transform="matrix(-0.7071 -0.7071 0.7071 -0.7071 79.9923 818.9693)" width="32" height="32"/>
			<rect x="103.094" y="286.406" transform="matrix(-0.7071 -0.7071 0.7071 -0.7071 -10.5264 600.4514)" width="32" height="32"/>
			<rect x="148.358" y="241.122" transform="matrix(0.7071 -0.7071 0.7071 0.7071 -133.6731 191.5282)" width="32" height="32"/>
			<polygon points="32,384 0,384 0,512 128,512 128,480 32,480 			"/>
			<polygon points="480,480 384,480 384,512 512,512 512,384 480,384 			"/>
			<polygon points="32,32 128,32 128,0 0,0 0,128 32,128 			"/>
		</g>
	</g>
</g>
<g>
</g>
<g>
</g>
<g>
</g>
<g>
</g>
<g>
</g>
<g>
</g>
<g>
</g>
<g>
</g>
<g>
</g>
<g>
</g>
<g>
</g>
<g>
</g>
<g>
</g>
<g>
</g>
<g>
</g>
</svg>
