<?xml version="1.0" encoding="iso-8859-1"?>
<!-- Generator: Adobe Illustrator 19.0.0, SVG Export Plug-In . SVG Version: 6.00 Build 0)  -->
<svg version="1.1" id="Capa_1" xmlns="http://www.w3.org/2000/svg" xmlns:xlink="http://www.w3.org/1999/xlink" x="0px" y="0px"
	 viewBox="0 0 512 512" style="enable-background:new 0 0 512 512;" xml:space="preserve">
<g>
	<g>
		<path d="M448.946,273.025c-5.519,0-9.999,4.479-9.999,9.999c0,5.519,4.479,9.999,9.999,9.999c5.519,0,9.999-4.479,9.999-9.999
			C458.945,277.505,454.465,273.025,448.946,273.025z"/>
	</g>
</g>
<g>
	<g>
		<path d="M326.214,62.805c-3.899-3.909-10.239-3.909-14.138,0c-3.909,3.899-3.909,10.239,0,14.138
			c3.899,3.909,10.239,3.909,14.138,0C330.123,73.044,330.123,66.705,326.214,62.805z"/>
	</g>
</g>
<g>
	<g>
		<path d="M505.993,196.065l-44.89-60.148l24.108-71.092c7.98-23.529-14.516-46.008-38.037-38.036l-71.091,24.108L315.934,6.006
			c-19.91-14.849-48.187-0.441-47.931,24.348l-0.028,75.126l-60.311,43.343c-20.276,14.355-15.313,45.756,8.418,53.132l28.54,8.873
			L11.733,443.714c-15.629,15.601-15.653,40.94-0.009,56.557c15.622,15.634,40.93,15.642,56.557,0.003l232.893-232.892l8.873,28.537
			c7.358,23.676,38.753,28.729,53.092,8.478l43.383-60.369l75.125-0.028C506.423,244.278,520.843,215.979,505.993,196.065z
			 M54.138,486.136c-7.805,7.811-20.449,7.825-28.277-0.009c-7.746-7.733-7.875-20.4,0.006-28.267l240.326-240.326l21.567,6.705
			l6.705,21.569L54.138,486.136z M481.697,224.102l-80.309,0.03c-3.218,0.001-6.238,1.451-8.116,4.063l-46.413,64.589
			c-4.811,6.797-15.257,5.116-17.717-2.801L315.4,245.788c-0.007-0.024-0.015-0.048-0.022-0.072l-0.024-0.076l-10.059-32.355
			c-0.977-3.143-3.438-5.603-6.58-6.579l-76.7-23.848c-7.87-2.446-9.652-12.864-2.742-17.756l64.531-46.375
			c2.613-1.878,4.062-4.897,4.063-8.115l0.03-80.308c0-0.044,0-0.087-0.001-0.131c-0.105-8.296,9.419-13.103,16.078-8.139
			l64.361,48.034c2.638,1.969,6.075,2.513,9.191,1.456l76.069-25.796c7.828-2.658,15.347,4.799,12.676,12.675l-25.796,76.069
			c-1.057,3.117-0.513,6.554,1.456,9.192l48.031,64.357C494.794,214.5,490.467,224.102,481.697,224.102z"/>
	</g>
</g>
<g>
	<g>
		<path d="M373.229,98.676l-16.488-12.308c-4.425-3.302-10.69-2.396-13.994,2.032c-3.304,4.425-2.394,10.689,2.032,13.993
			l16.488,12.308c4.442,3.316,10.703,2.378,13.994-2.032C378.564,108.245,377.654,101.979,373.229,98.676z"/>
	</g>
</g>
<g>
	<g>
		<path d="M208.98,53.057h-9.999v-9.999c0-5.521-4.476-9.999-9.999-9.999s-9.999,4.477-9.999,9.999v9.999h-9.999
			c-5.522,0-9.999,4.477-9.999,9.999c0,5.521,4.476,9.999,9.999,9.999h9.999v9.999c0,5.521,4.476,9.999,9.999,9.999
			s9.999-4.477,9.999-9.999v-9.999h9.999c5.522,0,9.999-4.477,9.999-9.999C218.979,57.534,214.502,53.057,208.98,53.057z"/>
	</g>
</g>
<g>
	<g>
		<path d="M428.949,353.014h-9.999v-9.999c0-5.522-4.476-9.999-9.999-9.999c-5.522,0-9.999,4.477-9.999,9.999v9.999h-9.999
			c-5.522,0-9.999,4.477-9.999,9.999c0,5.521,4.476,9.999,9.999,9.999h9.999v9.999c0,5.521,4.476,9.999,9.999,9.999
			c5.522,0,9.999-4.477,9.999-9.999v-9.999h9.999c5.522,0,9.999-4.477,9.999-9.999C438.948,357.491,434.471,353.014,428.949,353.014
			z"/>
	</g>
</g>
<g>
</g>
<g>
</g>
<g>
</g>
<g>
</g>
<g>
</g>
<g>
</g>
<g>
</g>
<g>
</g>
<g>
</g>
<g>
</g>
<g>
</g>
<g>
</g>
<g>
</g>
<g>
</g>
<g>
</g>
</svg>
