<?xml version="1.0" encoding="iso-8859-1"?>
<!-- Generator: Adobe Illustrator 17.1.0, SVG Export Plug-In . SVG Version: 6.00 Build 0)  -->
<!DOCTYPE svg PUBLIC "-//W3C//DTD SVG 1.1//EN" "http://www.w3.org/Graphics/SVG/1.1/DTD/svg11.dtd">
<svg version="1.1" id="Capa_1" xmlns="http://www.w3.org/2000/svg" xmlns:xlink="http://www.w3.org/1999/xlink" x="0px" y="0px"
	 viewBox="0 0 479.67 479.67" style="enable-background:new 0 0 479.67 479.67;" xml:space="preserve">
<g>
	<path d="M222.466,177.196c-11.327,5.686-22.429,0.3-22.979,0.025c-3.667-1.875-8.169-0.441-10.07,3.223
		c-1.909,3.676-0.476,8.203,3.201,10.111c0.486,0.253,8.292,4.212,18.826,4.212c5.405,0,11.53-1.044,17.75-4.165
		c3.702-1.857,5.197-6.365,3.339-10.067C230.674,176.833,226.165,175.336,222.466,177.196z"/>
	<path d="M320.208,177.196c-11.327,5.686-22.429,0.3-22.978,0.025c-3.666-1.875-8.169-0.441-10.07,3.223
		c-1.909,3.676-0.476,8.203,3.201,10.111c0.486,0.253,8.292,4.212,18.826,4.212c5.405,0,11.53-1.044,17.75-4.165
		c3.702-1.857,5.197-6.365,3.339-10.067C328.416,176.833,323.907,175.336,320.208,177.196z"/>
	<path d="M266.431,212.333c-3.993,0-7.257,3.12-7.487,7.056h-1.736c-0.23-3.936-3.494-7.056-7.487-7.056c-4.143,0-7.5,3.357-7.5,7.5
		c0,8.026,6.529,14.556,14.556,14.556h2.6c8.026,0,14.556-6.529,14.556-14.556C273.931,215.69,270.574,212.333,266.431,212.333z"/>
	<path d="M461.294,262.827c-1.24-3.423-4.723-5.47-8.309-4.837c-0.344,0.055-8.539,1.211-14.45-5.329
		c-12.194-13.491-5.904-47.07-1.069-65.886c17.146-66.726,12.052-128.48-13.296-161.163C411.175,8.856,393.201,0,372.189,0
		c-23.316,0-41.113,6.286-52.896,18.685c-8.314,8.748-11.778,18.722-13.211,26.045c-10.813-3.123-22.698-4.721-35.648-4.721
		c-53.727,0-79.9,28.281-92.397,52.007c-13.312,25.271-14.026,50.274-14.051,51.326c-0.002,0.074-0.002,0.148-0.002,0.223
		c0,0.015,0,0.029,0,0.044v90.733c0,0.36,0.026,0.72,0.078,1.076c0.131,0.907,3.387,22.474,17.819,44.884
		c9.258,14.376,24.462,30.956,48.52,40.897c-0.06,0.38-0.1,0.767-0.1,1.163v22.734h-37.518c-1.257,0.021-30.87,0.052-54.46,23.474
		c-18.51,18.377-27.895,45.539-27.895,80.732v15.367H25.432c-4.143,0-7.5,3.357-7.5,7.5c0,4.142,3.357,7.5,7.5,7.5h225.395
		c0.005,0,0.01,0.001,0.015,0.001c0.005,0,0.011-0.001,0.016-0.001h38.605c0.005,0,0.011,0.001,0.016,0.001
		c0.005,0,0.01-0.001,0.015-0.001h157.436c4.143,0,7.5-3.358,7.5-7.5c0-4.143-3.357-7.5-7.5-7.5h-16.954v-15.367
		c0-35.193-9.385-62.355-27.895-80.732c-23.587-23.419-53.19-23.465-54.406-23.474h-37.571v-22.734c0-0.396-0.04-0.783-0.1-1.163
		c24.058-9.94,39.262-26.521,48.52-40.897c6.296-9.775,10.464-19.389,13.174-27.199c6.461,11.688,15.056,19.949,25.718,24.669
		c7.304,3.233,14.81,4.438,21.948,4.438c20.308-0.001,37.607-9.759,38.576-10.316C461.096,270.079,462.535,266.251,461.294,262.827z
		 M191.308,99.006c15.377-29.194,41.999-43.997,79.126-43.997c14.912,0,28.095,2.297,39.518,6.848
		c0.034,0.013,0.066,0.027,0.101,0.039c17.423,6.967,30.734,19.197,39.758,36.62c6.392,12.343,9.265,24.86,10.557,33.562
		c-26.86-13.367-34.327-37.525-34.659-38.644c-0.749-2.603-2.843-4.599-5.478-5.223c-2.639-0.624-5.402,0.221-7.238,2.209
		c-42.6,46.117-111.079,47.159-133.362,46.152C180.722,128.201,183.63,113.584,191.308,99.006z M179.717,361.953l58.242,102.716
		h-67.625v-99.645C173.68,363.656,176.859,362.667,179.717,361.953z M125.429,449.302c0-41.671,14.411-63.872,29.905-75.706v91.073
		h-29.905V449.302z M360.585,361.983c2.858,0.72,6.044,1.717,9.4,3.084v99.602H302.36L360.585,361.983z M414.974,449.302v15.367
		h-29.989v-91.102c2.212,1.671,4.401,3.536,6.526,5.646C407.081,394.671,414.974,418.252,414.974,449.302z M344.411,360.096
		l-59.295,104.573h-29.912l-59.295-104.573h35.068c3.126,16.407,16.322,29.283,32.893,31.919c-1.282,1.469-2.065,3.385-2.065,5.488
		c0,4.614,3.741,8.355,8.355,8.355c4.614,0,8.355-3.741,8.355-8.355c0-2.103-0.783-4.02-2.066-5.488
		c16.571-2.637,29.767-15.513,32.893-31.919H344.411z M295.102,351.796c-0.029,0.27-0.047,0.543-0.047,0.82
		c0,13.729-11.169,24.898-24.896,24.898c-13.567,0-24.627-10.913-24.883-24.423c0.012-0.165,0.025-0.329,0.025-0.496v-26.469
		c7.174,1.836,14.973,3.117,23.472,3.668c0.162,0.011,0.323,0.016,0.485,0.016h1.887c0.162,0,0.323-0.005,0.485-0.016
		c8.499-0.551,16.298-1.832,23.472-3.668V351.796z M345.911,272.18c-16.804,26.092-42.038,40.435-75.012,42.631h-1.395
		c-32.767-2.185-57.904-16.371-74.713-42.169c-11.735-18.011-15.267-35.843-15.808-38.914V151.59
		c9.617,0.466,26.641,0.559,46.716-2.542c36.409-5.625,67.36-19.533,90.26-40.449c6.213,11.86,19.556,30.325,45.46,40.315v74.518
		c0,0.013,0,0.026,0,0.039v10.268C360.89,236.798,357.484,254.209,345.911,272.18z M403.42,264.026
		c-13.022-5.798-22.098-19.779-27-41.536v-78.88c0.004-2.131-0.315-45.475-30.433-75.688c-7.416-7.438-15.973-13.379-25.587-17.855
		c0.69-5.167,2.899-13.911,9.914-21.203C339.163,19.664,353.252,15,372.189,15c16.435,0,29.935,6.663,40.127,19.805
		c22.569,29.102,26.64,85.903,10.622,148.238c-9.989,38.873-8.399,65.774,4.726,79.957c1.02,1.103,2.072,2.088,3.144,2.968
		C422.417,267.703,412.49,268.065,403.42,264.026z"/>
	<path d="M259.524,260.598c-0.84-0.007-4.763-0.376-8.839-6.323c-2.34-3.415-7.01-4.288-10.427-1.946
		c-3.416,2.342-4.288,7.01-1.946,10.427c1.728,2.52,3.523,4.555,5.32,6.194c-0.508,0.191-1.031,0.379-1.571,0.565
		c-3.917,1.346-6.002,5.612-4.655,9.53c1.068,3.109,3.979,5.064,7.093,5.064c0.808,0,1.63-0.132,2.438-0.409
		c11.933-4.1,18.094-9.522,18.757-10.127c2.557-2.332,3.524-6.186,1.861-9.22C265.919,261.366,262.808,259.789,259.524,260.598z"/>
	<path d="M69.68,295.284c15.163,0,27.5-12.337,27.5-27.5V229.62c0-12.563-8.472-23.178-20-26.452V7.5c0-4.143-3.357-7.5-7.5-7.5
		s-7.5,3.357-7.5,7.5v195.668c-11.528,3.274-20,13.89-20,26.452v38.164C42.18,282.947,54.517,295.284,69.68,295.284z M57.18,229.62
		c0-6.893,5.607-12.5,12.5-12.5s12.5,5.607,12.5,12.5v38.164c0,6.893-5.607,12.5-12.5,12.5s-12.5-5.607-12.5-12.5V229.62z"/>
	<path d="M69.68,321.656c28.534,0,51.748-23.214,51.748-51.747v-15.391c0-4.143-3.357-7.5-7.5-7.5c-4.143,0-7.5,3.357-7.5,7.5
		v15.391c0,20.263-16.485,36.747-36.748,36.747s-36.748-16.484-36.748-36.747v-15.391c0-4.143-3.358-7.5-7.5-7.5
		c-4.143,0-7.5,3.357-7.5,7.5v15.391C17.932,298.442,41.146,321.656,69.68,321.656z"/>
</g>
<g>
</g>
<g>
</g>
<g>
</g>
<g>
</g>
<g>
</g>
<g>
</g>
<g>
</g>
<g>
</g>
<g>
</g>
<g>
</g>
<g>
</g>
<g>
</g>
<g>
</g>
<g>
</g>
<g>
</g>
</svg>
