<svg xmlns="http://www.w3.org/2000/svg" xmlns:xlink="http://www.w3.org/1999/xlink" width="32" height="32" viewBox="0 0 32 32">
  <defs>
    <path id="search-icon-a" d="M8.25,15 C4.52775,15 1.5,11.97225 1.5,8.25 C1.5,4.52775 4.52775,1.5 8.25,1.5 C11.97225,1.5 15,4.52775 15,8.25 C15,11.97225 11.97225,15 8.25,15 M17.78025,16.71975 L14.59875,13.53825 C14.595,13.5345 14.5905,13.53375 14.58675,13.53 C15.78,12.099 16.5,10.25925 16.5,8.25 C16.5,3.69375 12.80625,0 8.25,0 C3.69375,0 0,3.69375 0,8.25 C0,12.80625 3.69375,16.5 8.25,16.5 C10.25925,16.5 12.099,15.78 13.53,14.58675 C13.53375,14.5905 13.5345,14.595 13.53825,14.59875 L16.71975,17.78025 C16.866,17.9265 17.058,18 17.25,18 C17.442,18 17.634,17.9265 17.78025,17.78025 C18.0735,17.487 18.0735,17.013 17.78025,16.71975"/>
  </defs>
  <g fill="none" fill-rule="evenodd" transform="translate(7 7)">
    <use fill="#001319" xlink:href="#search-icon-a"/>
  </g>
</svg>
