<svg xmlns="http://www.w3.org/2000/svg" xmlns:xlink="http://www.w3.org/1999/xlink" xmlns:fi="http://pattern.flaticon.com/" x="0" y="0" width="700" height="350" viewBox="0 0 700 350"><rect x="0px" y="0px" width="100%" height="100%" opacity="0" fill="#000000"/><defs><g transform="matrix(0.12081793695688248 0 0 0.12081793695688248 241.0315843448043 -16.968449301265082)" id="L1_36"><path d="M7,138.428c-3.866,0-7,3.134-7,7v23.145c0,3.866,3.134,7,7,7s7-3.134,7-7v-23.145C14,141.561,10.866,138.428,7,138.428z" fill="#ffffff"/><path d="M34.273,138.428c-3.866,0-7,3.134-7,7v23.145c0,3.866,3.134,7,7,7s7-3.134,7-7v-23.145   C41.273,141.561,38.14,138.428,34.273,138.428z" fill="#ffffff"/><path d="M61.546,128.635c-3.866,0-7,3.134-7,7v42.73c0,3.866,3.134,7,7,7s7-3.134,7-7v-42.73   C68.546,131.769,65.412,128.635,61.546,128.635z" fill="#ffffff"/><path d="M88.818,117.063c-3.866,0-7,3.134-7,7v65.875c0,3.866,3.134,7,7,7c3.866,0,7-3.134,7-7v-65.875   C95.818,120.196,92.685,117.063,88.818,117.063z" fill="#ffffff"/><path d="M116.092,96.588c-3.866,0-7,3.134-7,7v106.824c0,3.866,3.134,7,7,7c3.866,0,7-3.134,7-7V103.588   C123.092,99.722,119.958,96.588,116.092,96.588z" fill="#ffffff"/><path d="M143.364,48.071c-3.866,0-7,3.134-7,7v203.857c0,3.866,3.134,7,7,7c3.866,0,7-3.134,7-7V55.071   C150.364,51.205,147.23,48.071,143.364,48.071z" fill="#ffffff"/><path d="M170.637,65.43c-3.866,0-7,3.134-7,7V241.57c0,3.866,3.134,7,7,7c3.866,0,7-3.134,7-7V72.43   C177.637,68.563,174.503,65.43,170.637,65.43z" fill="#ffffff"/><path d="M197.909,100.148c-3.866,0-7,3.134-7,7v99.703c0,3.866,3.134,7,7,7c3.866,0,7-3.134,7-7v-99.703   C204.909,103.282,201.775,100.148,197.909,100.148z" fill="#ffffff"/><path d="M225.183,121.067c-3.866,0-7,3.134-7,7v57.864c0,3.866,3.134,7,7,7s7-3.134,7-7v-57.864   C232.183,124.201,229.049,121.067,225.183,121.067z" fill="#ffffff"/><path d="M252.456,129.971c-3.866,0-7,3.134-7,7v40.059c0,3.866,3.134,7,7,7c3.866,0,7-3.134,7-7v-40.059   C259.456,133.105,256.322,129.971,252.456,129.971z" fill="#ffffff"/><path d="M279.728,138.428c-3.866,0-7,3.134-7,7v23.145c0,3.866,3.134,7,7,7c3.866,0,7-3.134,7-7v-23.145   C286.728,141.561,283.594,138.428,279.728,138.428z" fill="#ffffff"/><path d="M307,138.428c-3.866,0-7,3.134-7,7v23.145c0,3.866,3.134,7,7,7s7-3.134,7-7v-23.145   C314,141.561,310.866,138.428,307,138.428z" fill="#ffffff"/></g><path d="M314,165.895C314,79.326,243.57,8.896,157,8.896S0,79.326,0,165.895c0,16.388,2.52,32.523,7.476,47.982v32.917  c0,15.467,12.772,28.371,29.593,31.121v3.1c0,13.282,12.24,24.088,27.286,24.088c15.045,0,27.285-10.806,27.285-24.088V179.49  c0-13.282-12.24-24.088-27.285-24.088c-7.031,0-13.448,2.36-18.291,6.23C48.313,102.381,97.208,54.869,157,54.869  s108.688,47.513,110.935,106.765c-4.843-3.87-11.261-6.232-18.292-6.232c-15.046,0-27.286,10.806-27.286,24.088v101.525  c0,13.282,12.24,24.088,27.286,24.088c15.045,0,27.285-10.806,27.285-24.088v-3.1c16.82-2.751,29.593-15.654,29.593-31.121v-32.908  C311.479,198.424,314,182.286,314,165.895z M21.476,246.795v-33.086c0-7.895,6.564-14.594,15.593-16.853v66.793  C28.04,261.391,21.476,254.689,21.476,246.795z M51.068,179.49c0-5.468,6.084-10.088,13.286-10.088  c7.201,0,13.285,4.62,13.285,10.088v101.525c0,5.468-6.084,10.088-13.285,10.088c-7.202,0-13.286-4.62-13.286-10.088V179.49z   M157,40.869c-68.939,0-125.026,56.087-125.026,125.026c0,5.869,0.417,11.734,1.228,17.518c-6.517,1.733-12.257,5.029-16.655,9.384  C14.867,183.974,14,174.98,14,165.895c0-78.85,64.149-142.999,143-142.999s143,64.149,143,142.999  c0,9.085-0.867,18.079-2.547,26.904c-4.397-4.355-10.138-7.652-16.655-9.386c0.81-5.788,1.227-11.654,1.227-17.519  C282.025,96.956,225.939,40.869,157,40.869z M262.929,281.016c0,5.468-6.084,10.088-13.285,10.088  c-7.202,0-13.286-4.62-13.286-10.088V179.49c0-5.468,6.084-10.088,13.286-10.088c7.201,0,13.285,4.62,13.285,10.088V281.016z   M292.522,246.795c0,7.895-6.565,14.596-15.593,16.855v-66.793c9.028,2.259,15.593,8.959,15.593,16.853V246.795z" transform="matrix(0.05571880030497662 -0.09177213728907768 0.09177213728907768 0.05571880030497662 302.8439698602574 180.6603074373439)" id="L1_37" fill="#ffffff"/><g transform="matrix(0.10178953401967164 0.017702526990292504 -0.017702526990292504 0.10178953401967164 209.7983403434223 225.23974686847046)" id="L1_38"><path d="M54.368,260.924H7c-3.866,0-7,3.134-7,7s3.134,7,7,7h47.368c3.866,0,7-3.134,7-7S58.234,260.924,54.368,260.924z" fill="#ffffff"/><path d="M54.368,229.23H7c-3.866,0-7,3.134-7,7s3.134,7,7,7h47.368c3.866,0,7-3.134,7-7S58.234,229.23,54.368,229.23z" fill="#ffffff"/><path d="M54.368,197.538H7c-3.866,0-7,3.134-7,7s3.134,7,7,7h47.368c3.866,0,7-3.134,7-7S58.234,197.538,54.368,197.538z" fill="#ffffff"/><path d="M54.368,165.846H7c-3.866,0-7,3.134-7,7s3.134,7,7,7h47.368c3.866,0,7-3.134,7-7S58.234,165.846,54.368,165.846z" fill="#ffffff"/><path d="M54.368,134.153H7c-3.866,0-7,3.134-7,7c0,3.866,3.134,7,7,7h47.368c3.866,0,7-3.134,7-7   C61.368,137.287,58.234,134.153,54.368,134.153z" fill="#ffffff"/><path d="M54.368,102.461H7c-3.866,0-7,3.134-7,7c0,3.866,3.134,7,7,7h47.368c3.866,0,7-3.134,7-7   C61.368,105.595,58.234,102.461,54.368,102.461z" fill="#ffffff"/><path d="M54.368,70.77H7c-3.866,0-7,3.134-7,7c0,3.866,3.134,7,7,7h47.368c3.866,0,7-3.134,7-7   C61.368,73.903,58.234,70.77,54.368,70.77z" fill="#ffffff"/><path d="M54.368,39.076H7c-3.866,0-7,3.134-7,7s3.134,7,7,7h47.368c3.866,0,7-3.134,7-7S58.234,39.076,54.368,39.076z" fill="#ffffff"/><path d="M138.578,260.924H91.21c-3.866,0-7,3.134-7,7s3.134,7,7,7h47.368c3.866,0,7-3.134,7-7S142.444,260.924,138.578,260.924z" fill="#ffffff"/><path d="M138.578,229.23H91.21c-3.866,0-7,3.134-7,7s3.134,7,7,7h47.368c3.866,0,7-3.134,7-7S142.444,229.23,138.578,229.23z" fill="#ffffff"/><path d="M138.578,197.538H91.21c-3.866,0-7,3.134-7,7s3.134,7,7,7h47.368c3.866,0,7-3.134,7-7S142.444,197.538,138.578,197.538z" fill="#ffffff"/><path d="M138.578,165.846H91.21c-3.866,0-7,3.134-7,7s3.134,7,7,7h47.368c3.866,0,7-3.134,7-7S142.444,165.846,138.578,165.846z" fill="#ffffff"/><path d="M138.578,134.153H91.21c-3.866,0-7,3.134-7,7c0,3.866,3.134,7,7,7h47.368c3.866,0,7-3.134,7-7   C145.578,137.287,142.444,134.153,138.578,134.153z" fill="#ffffff"/><path d="M222.789,260.924h-47.368c-3.866,0-7,3.134-7,7s3.134,7,7,7h47.368c3.866,0,7-3.134,7-7S226.655,260.924,222.789,260.924z" fill="#ffffff"/><path d="M222.789,229.23h-47.368c-3.866,0-7,3.134-7,7s3.134,7,7,7h47.368c3.866,0,7-3.134,7-7S226.655,229.23,222.789,229.23z" fill="#ffffff"/><path d="M307,260.924h-47.368c-3.866,0-7,3.134-7,7s3.134,7,7,7H307c3.866,0,7-3.134,7-7S310.866,260.924,307,260.924z" fill="#ffffff"/><path d="M307,229.23h-47.368c-3.866,0-7,3.134-7,7s3.134,7,7,7H307c3.866,0,7-3.134,7-7S310.866,229.23,307,229.23z" fill="#ffffff"/><path d="M307,197.538h-47.368c-3.866,0-7,3.134-7,7s3.134,7,7,7H307c3.866,0,7-3.134,7-7S310.866,197.538,307,197.538z" fill="#ffffff"/><path d="M307,165.846h-47.368c-3.866,0-7,3.134-7,7s3.134,7,7,7H307c3.866,0,7-3.134,7-7S310.866,165.846,307,165.846z" fill="#ffffff"/><path d="M307,134.153h-47.368c-3.866,0-7,3.134-7,7c0,3.866,3.134,7,7,7H307c3.866,0,7-3.134,7-7   C314,137.287,310.866,134.153,307,134.153z" fill="#ffffff"/><path d="M307,102.461h-47.368c-3.866,0-7,3.134-7,7c0,3.866,3.134,7,7,7H307c3.866,0,7-3.134,7-7   C314,105.595,310.866,102.461,307,102.461z" fill="#ffffff"/><path d="M307,70.77h-47.368c-3.866,0-7,3.134-7,7c0,3.866,3.134,7,7,7H307c3.866,0,7-3.134,7-7C314,73.903,310.866,70.77,307,70.77   z" fill="#ffffff"/><path d="M259.632,53.076H307c3.866,0,7-3.134,7-7s-3.134-7-7-7h-47.368c-3.866,0-7,3.134-7,7S255.766,53.076,259.632,53.076z" fill="#ffffff"/></g><path d="M240.206,103.546c-23.505-1.487-39.148-16.783-44.226-31.281C180.96,29.356,143.203,1.631,99.789,1.631  c-26.011,0-50.57,9.463-69.152,26.644C12.061,45.449,1.222,68.693,0.119,93.724c-0.004,0.102-0.007,0.202-0.007,0.303L0,238.399  c-0.001,1.858,0.735,3.64,2.048,4.954c1.081,1.082,2.482,1.766,3.979,1.976v60.04c0,3.866,3.134,7,7,7h287.945c3.866,0,7-3.134,7-7  v-60.153c3.075-0.708,5.382-3.437,5.425-6.725c0.007-0.461,0.603-47.226,0.603-64.135C314,136.651,282.275,106.21,240.206,103.546z   M14.112,94.192c0.976-21.264,10.216-41.019,26.028-55.638c15.988-14.782,37.171-22.924,59.648-22.924  c37.38,0,69.951,24.046,82.978,61.26c6.604,18.859,26.651,38.735,56.554,40.628C273.914,119.708,300,144.144,300,174.356  c0,12.896-0.35,43.331-0.516,57.044l-285.479,0.005L14.112,94.192z M293.973,298.369H20.027v-52.964h12.321v30.332  c0,3.866,3.134,7,7,7s7-3.134,7-7v-30.332h7.022v30.332c0,3.866,3.134,7,7,7s7-3.134,7-7v-30.332h7.023v30.332c0,3.866,3.134,7,7,7  c3.866,0,7-3.134,7-7v-30.332h19.657v30.332c0,3.866,3.134,7,7,7c3.866,0,7-3.134,7-7v-30.332h7.022v30.332c0,3.866,3.134,7,7,7  s7-3.134,7-7v-30.332h22.8v30.332c0,3.866,3.134,7,7,7c3.866,0,7-3.134,7-7v-30.332h7.024v30.332c0,3.866,3.134,7,7,7  c3.866,0,7-3.134,7-7v-30.332h7.023v30.332c0,3.866,3.134,7,7,7s7-3.134,7-7v-30.332h21.445v30.332c0,3.866,3.134,7,7,7s7-3.134,7-7  v-30.332h7.023v30.332c0,3.866,3.134,7,7,7c3.866,0,7-3.134,7-7v-30.332h15.584V298.369z" transform="matrix(0.07243711435457723 0.040745877175399466 -0.040745877175399466 0.07243711435457723 67.02447620990392 210.2302707768285)" id="L1_39" fill="#ffffff"/><g transform="matrix(0.08934841683010376 0.009927602020326097 -0.009927602020326097 0.08934841683010376 20.379042065440803 84.42848728463024)" id="L1_40"><path d="M260.326,21.419C246.512,7.606,228.147,0,208.612,0c-19.535,0-37.9,7.606-51.713,21.419   c-13.814,13.814-21.421,32.181-21.421,51.716c0,5.448,0.612,10.799,1.766,15.992L38.254,210.638   c-5.913,7.257-6.315,17.917-1.563,25.767c-7.424,10.697-5.469,25.639,5.374,36.481c14.342,14.341,40.247,17.378,65.797-8.17   c14.771-14.771,36.186-23.261,48.542-10.907c8.918,8.918,9.215,27.818-11.208,48.242c-2.733,2.733-2.733,7.165,0.001,9.899   c1.366,1.366,3.158,2.05,4.949,2.05c1.791,0,3.583-0.684,4.95-2.051c27.224-27.225,24.893-54.354,11.207-68.04   c-7.666-7.666-18.925-11.172-30.889-9.616c-12.73,1.653-25.681,8.751-37.452,20.522c-19.992,19.99-37.272,16.897-45.998,8.171   c-5.457-5.457-6.52-11.569-4.945-16.123c3.622,2.275,7.867,3.439,12.118,3.439c4.992,0,9.984-1.592,13.954-4.826L196.18,145.201   c4.068,0.692,8.221,1.067,12.432,1.067c19.535,0,37.9-7.607,51.713-21.42c13.814-13.813,21.422-32.179,21.422-51.714   C281.746,53.6,274.139,35.233,260.326,21.419z M64.249,234.623c-3.062,2.494-8.201,2.233-10.994-0.562l-3.588-3.587   c-2.793-2.794-3.055-7.932-0.559-10.995l93.502-114.774c3.536,7.379,8.332,14.186,14.289,20.143   c6.715,6.715,14.51,11.949,22.987,15.57L64.249,234.623z M250.425,114.949c-11.168,11.169-26.018,17.319-41.814,17.319   c-15.795,0-30.645-6.15-41.813-17.32c-11.169-11.168-17.32-26.018-17.32-41.813c0-15.796,6.151-30.647,17.321-41.816   C177.967,20.15,192.817,14,208.612,14c15.796,0,30.646,6.15,41.814,17.319c11.17,11.169,17.321,26.02,17.321,41.816   C267.746,88.93,261.595,103.78,250.425,114.949z" fill="#ffffff"/><path d="M241.959,43.733c-2.712-2.757-7.144-2.792-9.899-0.081c-2.756,2.711-2.792,7.144-0.081,9.899   c5.384,5.473,8.472,13.348,8.472,21.606c0,8.26-3.088,16.137-8.472,21.611c-2.711,2.756-2.675,7.188,0.082,9.898   c1.363,1.341,3.136,2.01,4.908,2.01c1.811,0,3.62-0.698,4.99-2.092c7.938-8.07,12.491-19.525,12.491-31.428   C254.451,63.257,249.898,51.804,241.959,43.733z" fill="#ffffff"/></g><g transform="matrix(0.09940159320831299 0 0 0.09940159320831299 22.35515943914652 329.3551594391465)" id="L1_41"><path d="M64.647,210.666c-2.733-2.732-7.166-2.733-9.899-0.001c-2.734,2.734-2.734,7.166-0.001,9.899l38.282,38.283   c1.367,1.367,3.158,2.051,4.95,2.051c1.791,0,3.583-0.684,4.949-2.05c2.734-2.734,2.734-7.166,0.001-9.899L64.647,210.666z" fill="#ffffff"/><path d="M103.849,191.187c-2.732-2.733-7.165-2.733-9.899-0.001c-2.734,2.734-2.734,7.166-0.001,9.899l18.561,18.562   c1.367,1.367,3.158,2.051,4.95,2.051c1.791,0,3.583-0.684,4.949-2.05c2.734-2.734,2.734-7.166,0.001-9.899L103.849,191.187z" fill="#ffffff"/><path d="M312.64,22.521c-1.567-6.819-3.348-11.263-5.288-13.201c-2.568-2.569-5.753-3.984-8.967-3.984   c-1.64,0-3.231,0.357-4.729,1.06c-1.563,0.732-3.252,1.555-5.027,2.442l-6.547-6.548c-2.732-2.732-7.165-2.733-9.899-0.001   c-2.734,2.733-2.734,7.166-0.001,9.899l3.441,3.441c-3.056,1.646-6.136,3.333-9.121,4.987l-3.877-3.878   c-2.734-2.733-7.166-2.733-9.9,0c-2.733,2.734-2.733,7.166,0,9.9l1.101,1.101c-5.987,3.407-10.185,5.854-10.656,6.13   c-0.52,0.304-0.997,0.672-1.423,1.098c-3.324,3.326-4.343,8.109-3.093,12.412l-85.52,85.52c-0.584-0.281-1.162-0.556-1.728-0.822   c-3.704-1.747-6.903-3.256-9.918-6.271c-2.689-2.689,4.236-13.904,7.957-19.93c6.492-10.513,13.205-21.384,5.478-29.111   c-1.462-1.462-4.078-3.205-8.237-3.205c-10.996,0-26.237,12.858-29.421,16.042c-12.234,12.234-17.166,21.781-21.937,31.014   c-4.199,8.128-8.166,15.806-17.563,25.203c-7.012,7.012-16.218,10.502-25.965,14.198c-11.222,4.255-22.825,8.654-32.828,18.656   c-43.276,43.277-1.157,85.398,14.698,101.255c15.718,15.717,36.824,33.759,60.724,33.758c14.246-0.001,27.883-6.414,40.531-19.063   c10.001-10.002,14.401-21.605,18.656-32.827c3.695-9.747,7.186-18.953,14.197-25.964c6.785-6.786,12.096-9.278,18.244-12.164   c6.388-2.998,13.628-6.396,22.087-14.854c20.867-20.868,19.424-31.071,14.538-35.957c-2.621-2.621-6.113-3.949-10.379-3.949   c-4.824,0-10.106,1.698-15.7,3.497c-5.554,1.785-11.298,3.633-16.074,3.633c-3.153-0.001-5.349-0.789-7.115-2.557   c-1.195-1.195-2.021-2.198-2.581-3.119l95.411-95.411c1.162,0.339,2.375,0.521,3.614,0.521c3.342,0,6.47-1.286,8.809-3.623   l32.636-32.637C314.314,36.163,314.7,31.483,312.64,22.521z M247.407,58.425l7.763,7.764l-84.21,84.21   c-0.879-2.973-2.678-6.174-6.015-9.51l-0.001-0.001L247.407,58.425z M180.493,190.039   C180.494,190.039,180.493,190.039,180.493,190.039c6.972,0,14.085-2.287,20.36-4.306c3.612-1.161,7.328-2.356,9.985-2.716   c-1.885,3.648-6.551,9.818-12.63,15.897c-6.726,6.726-12.014,9.207-18.136,12.08c-6.411,3.01-13.678,6.42-22.196,14.938   c-9.137,9.138-13.331,20.201-17.388,30.9c-3.903,10.293-7.589,20.016-15.466,27.892c-10.066,10.067-20.086,14.961-30.632,14.962   c-18.759,0-37.015-15.85-50.822-29.657c-10.553-10.553-23.257-24.585-27.872-39.549c-4.558-14.777-0.249-28.485,13.173-41.907   c7.877-7.877,17.6-11.563,27.892-15.466c10.699-4.057,21.764-8.252,30.901-17.389c10.936-10.937,15.595-19.955,20.102-28.677   c4.476-8.662,8.703-16.845,19.397-27.54c4.192-4.192,11.39-8.974,16.093-10.978c-1.427,3.039-3.978,7.17-5.724,9.997   c-6.948,11.252-16.466,26.663-5.944,37.185c4.738,4.737,9.576,7.02,13.845,9.033c3.62,1.708,6.747,3.183,9.613,6.05   c3.256,3.256,2.944,4.518,1.912,8.699c-1.37,5.549-3.44,13.934,6.52,23.895C167.895,187.798,173.619,190.038,180.493,190.039z    M269.73,60.95l-16.645-16.646c7.912-4.567,30.409-17.434,44.362-24.205c1.018,2.968,2.224,8.05,2.44,10.694L269.73,60.95z" fill="#ffffff"/></g><path d="M307.65,273.522c-0.025-0.025-0.052-0.051-0.077-0.076L186.966,156.559l92.99-95.953c8.021-0.828,16.095-4.843,22.55-11.297  c6.069-6.068,10.027-13.63,11.145-21.292c1.211-8.301-1.112-16.075-6.369-21.323C302.969,2.377,296.93,0,290.276,0  c-9,0-18.338,4.177-25.62,11.459c-6.506,6.507-10.518,14.618-11.308,22.684L157,127.519L60.653,34.144  c-0.79-8.066-4.802-16.178-11.308-22.685c-6.067-6.066-13.627-10.023-21.29-11.14c-8.307-1.207-16.08,1.113-21.33,6.368  C1.463,11.941-0.861,19.716,0.35,28.017c1.118,7.662,5.075,15.223,11.144,21.292c6.473,6.472,14.53,10.477,22.553,11.299  l92.989,95.951L6.428,273.445c-0.025,0.025-0.052,0.051-0.077,0.076c-4.36,4.359-6.596,10.268-6.294,16.636  c0.29,6.117,2.913,11.95,7.384,16.422C12.153,311.295,18.547,314,24.982,314c0.001,0,0.001,0,0.002,0  c5.935,0,11.45-2.243,15.524-6.317c0.026-0.026,0.052-0.052,0.077-0.079l116.416-120.125l116.414,120.125  c0.025,0.026,0.051,0.053,0.076,0.079c4.099,4.099,9.566,6.318,15.499,6.318c0.378,0,0.759-0.009,1.141-0.027  c6.12-0.291,11.954-2.917,16.426-7.392c4.474-4.475,7.098-10.308,7.387-16.425C314.246,283.789,312.01,277.881,307.65,273.522z   M43.394,50.136c-1.257-2.073-3.518-3.372-5.986-3.372c-0.102,0.001-0.197,0.003-0.296,0.002c-5.24,0-11.101-2.739-15.719-7.357  c-3.895-3.894-6.515-8.782-7.191-13.412c-0.332-2.279-0.461-6.532,2.419-9.407c2.875-2.877,7.129-2.748,9.413-2.416  c4.631,0.675,9.519,3.294,13.409,7.186c4.678,4.677,7.426,10.629,7.352,15.922c-0.032,2.264,1.051,4.343,2.815,5.658l97.33,94.328  l-9.852,9.549L43.394,50.136z M30.577,297.815C28.75,299.62,26.529,300,24.983,300c-2.749,0-5.532-1.209-7.64-3.317  c-2.005-2.006-3.178-4.558-3.302-7.188c-0.112-2.363,0.66-4.507,2.177-6.041L264.177,43.144c1.901-1.309,3.061-3.497,3.028-5.863  c-0.074-5.292,2.673-11.245,7.351-15.922C279.163,16.751,285.04,14,290.276,14c2.06,0,4.965,0.449,7.108,2.595  c2.874,2.87,2.746,7.122,2.413,9.401c-0.675,4.63-3.296,9.518-7.189,13.412c-4.607,4.607-10.486,7.357-15.727,7.357l-0.194-0.001  c-0.031-0.001-0.063-0.001-0.095-0.001c-2.47,0-4.732,1.3-5.987,3.375L30.577,297.815z M299.96,289.495  c-0.124,2.63-1.297,5.182-3.305,7.19c-2.005,2.006-4.558,3.18-7.189,3.305c-2.356,0.114-4.508-0.659-6.042-2.174L166.749,177.42  l10.475-10.808l120.56,116.843C299.299,284.989,300.072,287.133,299.96,289.495z" transform="matrix(0.10358889137200525 -0.022519323531463502 0.022519323531463502 0.10358889137200525 118.20091478841564 322.27198237729516)" id="L1_42" fill="#ffffff"/><path d="M37.191,314c-13.138,0-19.018-11.259-19.018-22.416V22.416C18.172,11.259,24.052,0,37.189,0   c4.253,0,8.663,1.302,13.11,3.87l233.108,134.58c7.894,4.559,12.42,11.319,12.42,18.549c0,7.23-4.526,13.99-12.419,18.548   L50.298,310.132C45.852,312.698,41.442,314,37.191,314z M37.189,14c-4.365,0-5.017,5.272-5.017,8.416v269.168   c0,3.143,0.652,8.416,5.018,8.416c1.211,0,3.255-0.346,6.108-1.993l233.109-134.584c3.394-1.959,5.42-4.361,5.42-6.424   s-2.026-4.465-5.421-6.425L43.298,15.994C40.445,14.346,38.401,14,37.189,14z" transform="matrix(0.08735118061304092 0 0 0.08735118061304092 207.28581498557685 50.28586510767889)" id="L1_43" fill="#ffffff"/><g transform="matrix(0.10710919914303467 0.0483718984239579 -0.0483718984239579 0.10710919914303467 324.7121670951026 253.57176288840373)" id="L1_44"><path d="M136.138,150.214c-7.386,0-14.33,2.876-19.552,8.099c-5.224,5.222-8.1,12.166-8.1,19.553c0,7.386,2.876,14.33,8.099,19.551   c5.223,5.224,12.167,8.1,19.553,8.1c7.386,0,14.33-2.876,19.552-8.099c5.224-5.222,8.1-12.166,8.1-19.552   c0-7.387-2.876-14.331-8.099-19.552C150.468,153.09,143.524,150.214,136.138,150.214z M145.79,187.518   c-2.578,2.578-6.006,3.998-9.652,3.998s-7.074-1.42-9.653-3.999c-2.578-2.578-3.998-6.006-3.998-9.651   c0-3.646,1.42-7.074,3.999-9.653c2.578-2.578,6.006-3.998,9.652-3.998s7.074,1.42,9.653,3.999c2.578,2.578,3.998,6.006,3.998,9.652   C149.789,181.511,148.369,184.939,145.79,187.518z" fill="#ffffff"/><path d="M64.993,210.843c-2.734-2.732-7.166-2.732-9.9,0c-2.733,2.734-2.733,7.166,0,9.9l38.166,38.166   c1.367,1.366,3.159,2.05,4.95,2.05s3.583-0.684,4.95-2.05c2.733-2.734,2.733-7.166,0-9.9L64.993,210.843z" fill="#ffffff"/><path d="M305.537,49.082l4.175-3.459c0.168-0.14,0.33-0.286,0.484-0.44c5.068-5.069,5.068-13.316,0-18.386L287.203,3.804   C284.748,1.351,281.485,0,278.013,0c-3.471,0-6.734,1.351-9.19,3.804c-0.155,0.155-0.303,0.317-0.443,0.486l-3.46,4.176   l-2.809-2.809c-2.733-2.732-7.166-2.733-9.899-0.001c-2.734,2.733-2.734,7.166-0.001,9.899l3.737,3.738l-2.558,3.087l-3.558-3.557   c-2.734-2.733-7.167-2.732-9.899,0.001c-2.733,2.734-2.733,7.166,0.001,9.899l4.484,4.483l-2.878,3.474   c-2.121,2.237-3.442,5.07-3.73,8.019c-0.125,1.284-0.043,2.551,0.221,3.759l-69.355,69.357c-9.737-5.724-20.262-8.854-30.455-8.854   c-0.465,0-0.928,0.007-1.385,0.02c-14.727,0.418-28.383,6.51-39.493,17.618c-5.339,5.34-9.256,12.201-11.643,20.395   c-1.369,4.702-5.846,8.063-10.887,8.173c-15.485,0.337-37.227,4.022-52.867,19.664C5.982,190.797-1.519,210.506,0.257,231.827   c1.619,19.449,11.216,38.891,27.035,54.762l0.121,0.121c0,0,0,0,0.001,0c0,0,0.003,0.003,0.004,0.004   c0.002,0.002,0.005,0.005,0.009,0.009c0.001,0.001,0.002,0.002,0.003,0.003c0.002,0.002,0.004,0.004,0.006,0.006   c0.002,0.002,0.004,0.004,0.006,0.006c0.004,0.004,0.006,0.006,0.008,0.008c0.004,0.002,0.003,0.004,0.005,0.004   c15.856,15.793,35.285,25.379,54.72,26.996c2.019,0.168,4.054,0.254,6.051,0.254c18.976-0.001,36.593-7.589,50.947-21.944   c15.642-15.644,19.327-37.384,19.663-52.867c0.11-5.042,3.471-9.52,8.172-10.889c8.196-2.387,15.059-6.304,20.395-11.641   c11.108-11.107,17.2-24.764,17.617-39.492c0.304-10.644-2.83-21.662-8.826-31.847l69.35-69.35c0.824,0.179,1.675,0.28,2.547,0.28   c3.341,0,6.684-1.376,9.229-3.788l3.475-2.879l4.485,4.484c1.367,1.366,3.158,2.05,4.949,2.05c1.791,0,3.583-0.684,4.95-2.051   c2.733-2.733,2.733-7.166-0.001-9.899l-3.556-3.556l3.087-2.558l3.737,3.737c1.367,1.367,3.158,2.051,4.95,2.051   c1.791,0,3.583-0.684,4.949-2.05c2.734-2.733,2.734-7.166,0.001-9.899L305.537,49.082z M278.102,14.501l21.399,21.4l-31.056,25.732   l-16.076-16.077L278.102,14.501z M191.026,176.769c-0.313,11.088-4.989,21.458-13.522,29.989c-3.652,3.653-8.501,6.379-14.41,8.1   c-10.506,3.06-18.013,12.939-18.254,24.025c-0.281,12.92-3.21,30.915-15.567,43.273c-12.91,12.91-28.908,19.051-45.936,17.638   c-16.183-1.348-32.55-9.532-46.079-23.041c-13.517-13.536-21.701-29.904-23.049-46.088c-1.423-17.088,4.676-32.972,17.64-45.935   c12.355-12.356,30.351-15.285,43.272-15.567c11.086-0.241,20.965-7.748,24.023-18.254c1.721-5.906,4.446-10.755,8.101-14.409   c8.534-8.533,18.904-13.21,29.99-13.524c0.326-0.009,0.656-0.014,0.988-0.014c12.24,0,25.376,6.115,36.038,16.777   C189.9,155.379,191.195,170.844,191.026,176.769z M184.161,129.84c-1.297-1.297-2.637-2.523-3.996-3.711l66.488-66.489l7.709,7.71   l-66.488,66.488C186.687,132.48,185.46,131.14,184.161,129.84z" fill="#ffffff"/></g><g transform="matrix(-0.07826721943833768 0.02935020777651126 0.02935020777651126 0.07826721943833768 162.68010706123016 137.10404928359608)" id="L1_45"><path d="M224.138,4.175C221.22,1.587,217.395,0,213.197,0h-8.459c-9.111,0-16.524,7.412-16.524,16.523v104.678   c0,9.111,7.413,16.523,16.524,16.523h8.459c3.656,0,7.026-1.208,9.767-3.226c5.505-0.018,10.852-0.72,15.958-2.028   c2.473,30.492,5.389,62.72,6.006,67.662c0.718,5.739,4.214,10.281,9.191,12.51V307c0,3.866,3.134,7,7,7c3.866,0,7-3.134,7-7   v-94.143c5.22-2.141,8.932-6.792,9.674-12.726c0.929-7.438,10.134-110.553,10.134-130.811   C287.926,33.848,259.437,4.923,224.138,4.175z M215.721,121.201c0,1.368-1.156,2.523-2.524,2.523h-8.459   c-1.368,0-2.524-1.155-2.524-2.523V16.523c0-1.368,1.156-2.523,2.524-2.523h8.459c1.368,0,2.524,1.155,2.524,2.523V121.201z    M229.743,18.616c24.924,3.423,44.184,24.857,44.184,50.705c0,25.849-19.26,47.284-44.184,50.707V18.616z M263.9,198.395   c-0.053,0.428-0.216,1.73-2.299,1.752h-0.41c-2.155-0.021-2.318-1.324-2.371-1.751c-0.559-4.477-3.602-37.795-6.272-71.134   c7.118-3.677,13.479-8.617,18.773-14.537C268.628,148.149,264.707,191.932,263.9,198.395z" fill="#ffffff"/><path d="M109.262,33.286h-8.459c-4.198,0-8.024,1.587-10.942,4.175c-35.298,0.748-63.787,29.673-63.787,65.146   c0,20.258,9.205,123.373,10.134,130.811c0.741,5.922,4.441,10.567,9.674,12.713V307c0,3.866,3.134,7,7,7c3.866,0,7-3.134,7-7   v-61.061c4.966-2.225,8.472-6.772,9.191-12.521c0.616-4.941,3.533-37.169,6.005-67.661c5.107,1.309,10.454,2.01,15.959,2.028   c2.74,2.018,6.111,3.225,9.767,3.225h8.459c9.111,0,16.524-7.412,16.524-16.523V49.81   C125.787,40.698,118.373,33.286,109.262,33.286z M55.18,231.681c-0.053,0.428-0.216,1.73-2.299,1.752h-0.41   c-2.155-0.022-2.318-1.324-2.371-1.751c-0.808-6.464-4.729-50.246-7.421-85.672c5.295,5.921,11.654,10.861,18.773,14.538   C58.783,193.887,55.74,227.204,55.18,231.681z M84.257,153.314c-24.924-3.423-44.184-24.858-44.184-50.707   c0-25.848,19.26-47.282,44.184-50.705V153.314z M111.787,154.487c0,1.368-1.156,2.523-2.524,2.523h-8.459   c-1.368,0-2.524-1.155-2.524-2.523V49.81c0-1.368,1.156-2.524,2.524-2.524h8.459c1.368,0,2.524,1.155,2.524,2.524V154.487z" fill="#ffffff"/></g></defs><g fi:class="KUsePattern" opacity="0.41"><pattern id="pattern_L1_36" width="350" height="350" patternUnits="userSpaceOnUse"><use xlink:href="#L1_36" x="-350" y="-350"/><use xlink:href="#L1_36" x="0" y="-350"/><use xlink:href="#L1_36" x="350" y="-350"/><use xlink:href="#L1_36" x="-350" y="0"/><use xlink:href="#L1_36" x="0" y="0"/><use xlink:href="#L1_36" x="350" y="0"/><use xlink:href="#L1_36" x="-350" y="350"/><use xlink:href="#L1_36" x="0" y="350"/><use xlink:href="#L1_36" x="350" y="350"/></pattern><rect x="0" y="0" width="100%" height="100%" fill="url(#pattern_L1_36)"/></g><g fi:class="KUsePattern" opacity="0.42"><pattern id="pattern_L1_37" width="350" height="350" patternUnits="userSpaceOnUse"><use xlink:href="#L1_37" x="-350" y="-350"/><use xlink:href="#L1_37" x="0" y="-350"/><use xlink:href="#L1_37" x="350" y="-350"/><use xlink:href="#L1_37" x="-350" y="0"/><use xlink:href="#L1_37" x="0" y="0"/><use xlink:href="#L1_37" x="350" y="0"/><use xlink:href="#L1_37" x="-350" y="350"/><use xlink:href="#L1_37" x="0" y="350"/><use xlink:href="#L1_37" x="350" y="350"/></pattern><rect x="0" y="0" width="100%" height="100%" fill="url(#pattern_L1_37)"/></g><g fi:class="KUsePattern" opacity="0.27"><pattern id="pattern_L1_38" width="350" height="350" patternUnits="userSpaceOnUse"><use xlink:href="#L1_38" x="-350" y="-350"/><use xlink:href="#L1_38" x="0" y="-350"/><use xlink:href="#L1_38" x="350" y="-350"/><use xlink:href="#L1_38" x="-350" y="0"/><use xlink:href="#L1_38" x="0" y="0"/><use xlink:href="#L1_38" x="350" y="0"/><use xlink:href="#L1_38" x="-350" y="350"/><use xlink:href="#L1_38" x="0" y="350"/><use xlink:href="#L1_38" x="350" y="350"/></pattern><rect x="0" y="0" width="100%" height="100%" fill="url(#pattern_L1_38)"/></g><g fi:class="KUsePattern" opacity="0.39"><pattern id="pattern_L1_39" width="350" height="350" patternUnits="userSpaceOnUse"><use xlink:href="#L1_39" x="-350" y="-350"/><use xlink:href="#L1_39" x="0" y="-350"/><use xlink:href="#L1_39" x="350" y="-350"/><use xlink:href="#L1_39" x="-350" y="0"/><use xlink:href="#L1_39" x="0" y="0"/><use xlink:href="#L1_39" x="350" y="0"/><use xlink:href="#L1_39" x="-350" y="350"/><use xlink:href="#L1_39" x="0" y="350"/><use xlink:href="#L1_39" x="350" y="350"/></pattern><rect x="0" y="0" width="100%" height="100%" fill="url(#pattern_L1_39)"/></g><g fi:class="KUsePattern" opacity="0.4"><pattern id="pattern_L1_40" width="350" height="350" patternUnits="userSpaceOnUse"><use xlink:href="#L1_40" x="-350" y="-350"/><use xlink:href="#L1_40" x="0" y="-350"/><use xlink:href="#L1_40" x="350" y="-350"/><use xlink:href="#L1_40" x="-350" y="0"/><use xlink:href="#L1_40" x="0" y="0"/><use xlink:href="#L1_40" x="350" y="0"/><use xlink:href="#L1_40" x="-350" y="350"/><use xlink:href="#L1_40" x="0" y="350"/><use xlink:href="#L1_40" x="350" y="350"/></pattern><rect x="0" y="0" width="100%" height="100%" fill="url(#pattern_L1_40)"/></g><g fi:class="KUsePattern" opacity="0.48"><pattern id="pattern_L1_41" width="350" height="350" patternUnits="userSpaceOnUse"><use xlink:href="#L1_41" x="-350" y="-350"/><use xlink:href="#L1_41" x="0" y="-350"/><use xlink:href="#L1_41" x="350" y="-350"/><use xlink:href="#L1_41" x="-350" y="0"/><use xlink:href="#L1_41" x="0" y="0"/><use xlink:href="#L1_41" x="350" y="0"/><use xlink:href="#L1_41" x="-350" y="350"/><use xlink:href="#L1_41" x="0" y="350"/><use xlink:href="#L1_41" x="350" y="350"/></pattern><rect x="0" y="0" width="100%" height="100%" fill="url(#pattern_L1_41)"/></g><g fi:class="KUsePattern" opacity="0.32"><pattern id="pattern_L1_42" width="350" height="350" patternUnits="userSpaceOnUse"><use xlink:href="#L1_42" x="-350" y="-350"/><use xlink:href="#L1_42" x="0" y="-350"/><use xlink:href="#L1_42" x="350" y="-350"/><use xlink:href="#L1_42" x="-350" y="0"/><use xlink:href="#L1_42" x="0" y="0"/><use xlink:href="#L1_42" x="350" y="0"/><use xlink:href="#L1_42" x="-350" y="350"/><use xlink:href="#L1_42" x="0" y="350"/><use xlink:href="#L1_42" x="350" y="350"/></pattern><rect x="0" y="0" width="100%" height="100%" fill="url(#pattern_L1_42)"/></g><g fi:class="KUsePattern" opacity="0.46"><pattern id="pattern_L1_43" width="350" height="350" patternUnits="userSpaceOnUse"><use xlink:href="#L1_43" x="-350" y="-350"/><use xlink:href="#L1_43" x="0" y="-350"/><use xlink:href="#L1_43" x="350" y="-350"/><use xlink:href="#L1_43" x="-350" y="0"/><use xlink:href="#L1_43" x="0" y="0"/><use xlink:href="#L1_43" x="350" y="0"/><use xlink:href="#L1_43" x="-350" y="350"/><use xlink:href="#L1_43" x="0" y="350"/><use xlink:href="#L1_43" x="350" y="350"/></pattern><rect x="0" y="0" width="100%" height="100%" fill="url(#pattern_L1_43)"/></g><g fi:class="KUsePattern" opacity="0.29"><pattern id="pattern_L1_45" width="350" height="350" patternUnits="userSpaceOnUse"><use xlink:href="#L1_45" x="-350" y="-350"/><use xlink:href="#L1_45" x="0" y="-350"/><use xlink:href="#L1_45" x="350" y="-350"/><use xlink:href="#L1_45" x="-350" y="0"/><use xlink:href="#L1_45" x="0" y="0"/><use xlink:href="#L1_45" x="350" y="0"/><use xlink:href="#L1_45" x="-350" y="350"/><use xlink:href="#L1_45" x="0" y="350"/><use xlink:href="#L1_45" x="350" y="350"/></pattern><rect x="0" y="0" width="100%" height="100%" fill="url(#pattern_L1_45)"/></g><g fi:class="KUsePattern" opacity="0.46"><pattern id="pattern_L1_44" width="350" height="350" patternUnits="userSpaceOnUse"><use xlink:href="#L1_44" x="-350" y="-350"/><use xlink:href="#L1_44" x="0" y="-350"/><use xlink:href="#L1_44" x="350" y="-350"/><use xlink:href="#L1_44" x="-350" y="0"/><use xlink:href="#L1_44" x="0" y="0"/><use xlink:href="#L1_44" x="350" y="0"/><use xlink:href="#L1_44" x="-350" y="350"/><use xlink:href="#L1_44" x="0" y="350"/><use xlink:href="#L1_44" x="350" y="350"/></pattern><rect x="0" y="0" width="100%" height="100%" fill="url(#pattern_L1_44)"/></g></svg>